# xmcd
# 
# Track frame offsets:
#     150
#     15252
#     26054
#     44501
#     56458
#     72580
#     86597
#     105519
#     109261
#     121338
#     136270
#     156477
#     173069
#     186131
#     197818
#     237675
#     248912
#     258359
#     269596
#     280823
#     309940
# 
# Disc length: 4399
# 
# Revision: 1
# Processed by: cddbd v1.5.2PL0 Copyright (c) Steve Scherf et al.
# Submitted via: fre:ac v1.0.17
# 
DISCID=2f112d15
DTITLE=Lojzo - "Komplet" cd 2.
DYEAR=1991
DGENRE=Folk-Rock
TTITLE0=Zipsy woman
TTITLE1=Schone Naci
TTITLE2=Opravovna dusi
TTITLE3=Naruby
TTITLE4=Hura na paprike
TTITLE5=Ticho po plesine
TTITLE6=Lopata-metla ludstva
TTITLE7=Po lopate (ludova)
TTITLE8=Za stolom si zviera
TTITLE9=Koniec komarov v Bratislave
TTITLE10=Balada o tureckom mede
TTITLE11=Hudobne sny
TTITLE12=Necekej ...
TTITLE13=Molekula blues
TTITLE14=Lojzo - vyber
TTITLE15=Politicke hrude
TTITLE16=Ja som dnes chory
TTITLE17=Prosim ta, stlac ma!
TTITLE18=Ano a normlane no ne
TTITLE19=Pernikova chalupka
TTITLE20=Kazdy den budu vraj Vianoce
EXTD=YEAR: 1991
EXTT0=
EXTT1=
EXTT2=
EXTT3=
EXTT4=
EXTT5=
EXTT6=
EXTT7=
EXTT8=
EXTT9=
EXTT10=
EXTT11=
EXTT12=
EXTT13=
EXTT14=
EXTT15=
EXTT16=
EXTT17=
EXTT18=
EXTT19=
EXTT20=
PLAYORDER=
